<svg version="1.1" xmlns="http://www.w3.org/2000/svg" xmlns:xlink="http://www.w3.org/1999/xlink" width="225.000000pt" height="179.000000pt" viewBox="0,0,256,203.65001"><g fill="#d7d7d7" fill-rule="nonzero" stroke="none" stroke-width="1" stroke-linecap="butt" stroke-linejoin="miter" stroke-miterlimit="10" stroke-dasharray="" stroke-dashoffset="0" font-family="none" font-weight="none" font-size="none" text-anchor="none" style="mix-blend-mode: normal"><g transform="translate(0.03637,0.56278) scale(1.13778,1.13778)"><g transform="translate(0,179) scale(0.1,-0.1)"><path d="M154,1771c-56,-9 -90,-33 -114,-81c-19,-38 -20,-57 -20,-637v-598l23,-40c13,-22 40,-49 62,-62c40,-22 44,-23 430,-23h390l52,79c48,73 51,81 43,116c-5,20 -20,49 -34,64c-18,19 -26,39 -28,76l-3,50l-252,3l-253,2v63v62l127,-3c71,-2 187,-1 258,3l130,7l-3,39c-3,28 2,46 18,66l22,28l-276,3l-276,2v65v65h329c319,0 330,1 336,20c8,27 53,60 80,60c12,0 39,14 60,30l38,30h-422h-421v65v65h675h675v-65v-65h-97l-98,-1l31,-28c18,-16 49,-32 71,-35c31,-6 43,-14 58,-42c11,-20 36,-45 57,-57c30,-18 38,-30 44,-60c3,-21 20,-54 36,-73c27,-30 30,-40 24,-74c-4,-27 -1,-50 11,-74c15,-33 15,-38 -1,-79c-10,-27 -14,-55 -10,-75c5,-25 1,-39 -21,-68c-15,-19 -31,-51 -37,-70c-9,-33 -6,-41 43,-115l52,-79h69c85,0 136,23 169,77l24,38l4,510c1,281 0,556 -4,612c-8,114 -23,149 -84,190l-34,23l-956,-1c-526,-1 -975,-5 -997,-8z"></path><path d="M1348,1253c7,-3 16,-2 19,1c4,3 -2,6 -13,5c-11,0 -14,-3 -6,-6z"></path><path d="M1523,1253c9,-2 23,-2 30,0c6,3 -1,5 -18,5c-16,0 -22,-2 -12,-5z"></path><path d="M1410,1208c-14,-5 -42,-10 -64,-9c-27,1 -47,-6 -67,-24c-16,-13 -45,-27 -65,-31c-25,-4 -39,-15 -50,-36c-8,-16 -30,-38 -48,-49c-23,-13 -36,-30 -40,-51c-3,-17 -18,-46 -31,-64c-18,-23 -25,-44 -23,-67c1,-18 -4,-48 -11,-65c-11,-26 -11,-38 0,-64c7,-17 12,-49 10,-71c-1,-31 4,-46 22,-66c14,-14 28,-41 32,-59c5,-23 17,-40 39,-52c17,-11 39,-33 49,-49c11,-20 31,-34 54,-40c20,-6 45,-19 57,-30c45,-42 279,-41 339,1c15,11 43,24 62,29c23,7 40,20 50,39c8,15 30,38 49,49c22,14 36,31 40,52c3,17 18,45 32,62c20,24 24,37 19,63c-4,22 0,44 10,65c15,28 15,34 0,71c-9,25 -13,52 -10,70c5,22 1,35 -19,58c-14,17 -28,46 -32,65c-4,24 -15,40 -39,54c-18,10 -41,33 -51,49c-12,21 -28,32 -50,37c-19,3 -47,17 -64,31c-23,20 -38,25 -63,21c-17,-2 -47,2 -66,9c-39,16 -38,16 -71,2zM1557,1059c76,-29 143,-96 173,-175c56,-149 -17,-319 -165,-386c-75,-33 -182,-31 -252,5c-110,57 -164,138 -171,258c-4,66 -1,84 20,130c74,162 231,229 395,168z"></path><path d="M1353,1004c-52,-19 -128,-98 -142,-150c-28,-99 4,-205 78,-263c52,-41 85,-52 157,-52c181,0 297,189 215,349c-56,108 -188,158 -308,116zM1560,878c17,-12 30,-26 30,-32c0,-5 -32,-51 -71,-102l-71,-93l-79,60l-79,60l26,35c15,18 29,34 31,34c3,0 22,-13 43,-30l37,-30l47,60c26,33 49,60 52,60c3,0 18,-10 34,-22z"></path><path d="M1078,453c-40,-47 -139,-206 -131,-212c4,-4 47,-19 96,-35c92,-29 107,-40 185,-138c20,-26 40,-47 44,-48c8,0 108,138 134,186c17,31 17,32 -15,77c-28,42 -35,46 -61,41c-22,-5 -37,0 -60,20c-17,14 -49,30 -71,36c-29,8 -46,21 -65,50c-30,45 -35,47 -56,23z"></path><path d="M1768,453c-9,-10 -21,-28 -27,-40c-7,-14 -28,-27 -54,-34c-23,-6 -54,-22 -69,-36c-22,-21 -33,-24 -62,-19c-23,4 -48,1 -72,-9c-21,-9 -44,-13 -51,-11c-7,3 -13,2 -13,-2c0,-11 184,-282 192,-282c4,0 37,35 73,79l66,79l100,31c69,22 97,36 93,44c-35,58 -146,217 -153,217c-4,0 -15,-8 -23,-17z"></path></g></g></g></svg>